<svg width="0" height="0" class="hidden">
  <symbol fill="none" xmlns="http://www.w3.org/2000/svg" viewBox="0 0 72 78" id="letter-a">
    <path d="M30.193 1.741c7.464-2.51 14.753 2.167 22.137 2.131 1.544-.41 3.088-.822 4.42-1.75 6.069-3.636 12.015 2.194 13.78 7.83 2.085 11.328.427 23.271.71 34.837-.022 5.368-.055 10.682-.131 16.06.708 7.406-1.142 17.207-10.842 15.401-3.232-.211-5.384-4.375-8.705-2.446-15.41 8.297-33.85.98-44.15-11.996-1.766-1.892-3.079-4.04-4.045-6.423-.36-.992-.818-1.908-1.222-2.836C.892 49.552.027 46.535.058 43.233c.071-4.54.099-9.015 1.204-13.42 3.91-13.329 14.794-25.33 28.931-28.072zm5.998 53.143c16.057-2.947 23.965-32.025 2.598-33.076-19.392.186-25.11 35.935-2.598 33.076z" fill="#E70000"></path>
  </symbol>
  <symbol fill="none" xmlns="http://www.w3.org/2000/svg" viewBox="0 0 67 107" id="letter-b">
    <path d="M18.919 8.552c2.597 7.986-.099 16.442 1.185 24.628.299 2.88.479 3.114 3.32 2.254 14.32-4.1 33.15 1.299 38.173 16.465 9.698 17.153 3.734 41.748-14.01 51.317-10.016 5.791-17.931 2.84-28.013.101-3.571.096-6.02 4.777-10.118 2.8-8.393-2.418-8.184-11.995-8.022-19.108-.035-15.093.768-30.252.28-45.331-.307-6.753-.335-13.527-.416-20.286.04-6.737-3.955-14.614 3.784-18.964 5.637-3.7 12.668-.442 13.837 6.124zm2.167 69.375c7.978 16.726 33.183 2.429 24.53-15.474-9.045-15.855-30.732-1.64-24.53 15.474z" fill="#00478C"></path>
  </symbol>
  <symbol fill="none" xmlns="http://www.w3.org/2000/svg" viewBox="0 0 62 77" id="letter-c">
    <path d="M49.446 73.835C30.952 79.93 16.682 75.662 5.911 59.252-5.196 44.608.511 20.164 14.524 9.304 26.445-.716 49.996-3.957 59.25 10.911c3.968 7.944-2.36 18.8-11.536 14.033-13.122-6.22-27.908 1.474-27.11 16.635.224 8.29 7.802 14.591 15.677 13.053 3.93-.943 7.958-1.628 11.576-3.567 6.925-3.291 13.816 2.74 13.611 9.727-1.06 6.427-5.987 11.138-12.023 13.043z" fill="#00478C"></path>
  </symbol>
  <symbol fill="none" xmlns="http://www.w3.org/2000/svg" viewBox="0 0 66 108" id="letter-d">
    <path d="M20.673 36.63c15.23-7.549 28.378 5.238 28.02-3.446.677-6.616-2.865-25.949 1.259-29.606 7.115-7.345 15.565-1.208 15.42 7.848.335 21.4.74 42.83.24 64.2-.779 8.185.318 16.642-1.948 24.638-.68 3.263-4.918 2.67-7.458 3.419-2.314.72-4.381-1.42-6.597-.443-8.843 3.191-18.88 6.493-27.872 2.154-10.032-4.289-18.463-12.963-19.876-24.062-4.25-16.294 2.448-37.949 18.812-44.702zM36.61 84.453c19.358-7.09 8.496-37.704-10.733-27.546-13.37 9.005-6.767 33.799 10.733 27.546z" fill="#00478C"></path>
  </symbol>
  <symbol fill="none" xmlns="http://www.w3.org/2000/svg" viewBox="0 0 70 76" id="letter-e">
    <path d="M5.09 53.308C-4.948 34.83 3.82 4.387 26.396.528c8.828-.579 19.034-1.34 26.24 4.667 7.462 5.028 12.44 12.61 15.096 21.077 2.286 8.709 3.169 22.067-9.358 21.702-5.185.025-10.348.22-15.508.295-2.19.15-18.754-1.725-17.071 1.604 1.465 3.008 5.343 3.437 8.284 4.079 8.287 1.576 16.148-2.62 24.255-2.42 1.03.108 1.977 1.173 2.483 2.085 5.569 9.55-2.687 18.331-11.835 21.14-18.129 3.95-36.717-3.712-43.89-21.45zm45.83-28.914c-4.29-7.428-13.794-7.862-21.287-5.798-3.302.876-9.583 4.424-8.793 8.432.532.84 1.346.503 2.06.461 6.959-.523 13.862-.408 20.81.174 2.456.023 8.492.866 7.21-3.27z" fill="#E70000"></path>
  </symbol>
  <symbol fill="none" xmlns="http://www.w3.org/2000/svg" viewBox="0 0 59 107" id="letter-f">
    <path d="M55.817 11.19c4.416 6.263 2.881 19.093-6.902 17.747-3.103-.58-5.59-2.64-8.473-3.722-7.452-3.479-12.41 9.771-7.882 10.303 11.338-1.043 16.196 3.207 14.233 14.83-1.621 11.557-15.423 1.52-14.229 10.797-.028 8.454-.103 16.934-.056 25.41.092 7.882.893 23.173-11.545 19.358-11.152-4.667-4.628-24.09-5.818-33.81-.914-4.08 2.234-15.617-3.144-16.425-5.165.017-11.073-.052-11.093-7.471-1.543-18.399 12.345-9.104 13.98-15.379-.179-8.149-.205-16.698 4.922-23.494C29.015-2.092 48.395-2.192 55.817 11.19z" fill="#00478C"></path>
  </symbol>
  <symbol fill="none" xmlns="http://www.w3.org/2000/svg" viewBox="0 0 67 105" id="letter-g">
    <path d="M10.192 8.613C18.108 2.138 29.07-1.821 39.097 1.549c4.064.838 8.388 5.003 12.407 2.257C56.028.55 62.747 2.865 64.75 7.875c2.671 9.651 1.705 20.052 2.173 30.012-.242 11.66-.02 23.353-1.191 34.946-1.692 10.739-5.988 23.508-16.655 28.227-9.291 4.546-20.918 4.37-29.69-1.245-1.736-1.254-3.598-2.4-5.329-3.732-6.952-4.938-8.229-16.591-1.2-21.067 9.097-3.509 14.678 9.427 23.886 7.055 5.377-.586 10.706-3.16 12.663-8.546.414-1.372 1.318-6.21-.696-6.356-6.806.95-13.547 3.656-20.498 3.427C10.984 67.719-.31 49.933.704 33.113c.005-8.991 1.915-18.468 9.487-24.5zm12.415 35.733c7.848 9.674 21.22 7.835 26.39-3.587 5.135-12.552-8.507-19.686-18.811-19.845-10.843 1.32-16.081 15.773-7.579 23.431z" fill="#00478C"></path>
  </symbol>
  <symbol fill="none" xmlns="http://www.w3.org/2000/svg" viewBox="0 0 62 106" id="letter-h">
    <path d="M5.537 99.882c-5.246-5.462-4.44-13.708-4.389-20.62C-.328 56.105 2.308 32.722.056 9.657.092-.788 16.141-2.54 17.856 8.225c.888 4.761 1.155 9.533 1.266 14.307.687 4.337-2.546 13.984 4.95 11.525 15.186-2.281 30.957 8.397 35.525 22.841 2.822 9.465 1.773 19.695.949 29.378-.443 4.085-.73 8.245-1.055 12.366-2.083 11.219-15.06 8.065-16.651-2.12-1.198-9.881.125-19.922.208-29.864-.282-5.781-4.898-13.157-11.442-11.996-4.604 1.128-9.996 4.017-11.008 9.004-.542 10.338.003 20.658-.656 31.037.084 8.114-9.94 10.267-14.405 5.18z" fill="#00478C"></path>
  </symbol>
  <symbol fill="none" xmlns="http://www.w3.org/2000/svg" viewBox="0 0 20 86" id="letter-i">
    <path d="M18.802 79c1.037-14.873.541-29.877 1.065-44.82-.235-4.773.718-11.919-4.692-13.993C6.827 16.67 1.988 21.365 1.223 29.74c-.077 9.521.387 18.992-.512 28.471.648 7.192-1.262 14.971 2.374 21.576 3.46 7.244 14.41 8.495 15.717-.788zm1.018-67.39C21.088-1.568 3.153-4.631 3.03 9.572c-.46 4.41 3.747 8.271 7.965 8.35 3.634-.335 9.215-1.552 8.825-6.312z" fill="#E70000"></path>
  </symbol>
  <symbol fill="none" xmlns="http://www.w3.org/2000/svg" viewBox="0 0 49 117" id="letter-j">
    <path d="M15.873 93.258c3.4 2.865 7.786 2.595 11.093-.123 2.131-2.729 2.5-6.765 2.867-10.175.157-11.873.238-23.737-.067-35.553-.07-6.68-.69-13.372.5-19.975 1.093-2.912 4.91-4.324 7.91-4.422 2.965-.055 7.484-.85 8.459 2.98 1.957 6.761 1.005 14.038 1.465 21.023.577 15.655.58 31.42-1.355 46.996-1.189 7.58-3.248 16.364-10.822 20.002-11.015 5.903-27.638 2.682-34.702-7.788-4.35-10.024 5.402-21.795 14.83-13.105a.416.416 0 00-.178.14zm29.073-76.956c-8.137 8.012-20.811-1.959-15.292-11.875 6.974-10.175 22.287 1.228 15.292 11.875z" fill="#00478C"></path>
  </symbol>
  <symbol fill="none" xmlns="http://www.w3.org/2000/svg" viewBox="0 0 63 105" id="letter-k">
    <path d="M20.356 81.42c-1.489 4.747-.03 15.784-4.27 17.926-3.417 1.893-6.963 2.188-10.592.518-8.11-3.046-3.005-21.54-3.917-28.923.985-13.047.707-26.07.46-39.14.212-7.893-2.38-20.797 1.324-27.506C6.207-.018 10.968-.96 15.18 1.62c9.456 8.873 2.364 32.97 5.44 45.14 2.24 4.572 9.107-2.75 12.27-3.758 3.265-1.862 6.53-3.724 9.858-5.48 10.725-5.699 19.22 6.424 12.725 15.77-4.106 4.93-10.797 6.705-16.127 10.102-3.373 1.528-.7 3.95 1.087 5.524 6.616 6.604 15.54 11.504 20.7 19.32 4.474 7.561-3.663 21.288-12.67 14.622-7.7-7.451-16.613-13.463-24.632-20.531-1.1-.923-1.13-.877-3.474-.91z" fill="#00478C"></path>
  </symbol>
  <symbol fill="none" xmlns="http://www.w3.org/2000/svg" viewBox="0 0 22 102" id="letter-l">
    <path d="M19.13 95.555c-3.972 8.941-17.883 8.512-18.451-2.087-.856-21.018.125-42.141.645-63.164.3-9.567-2.944-24.072 6.97-29.615 14.72-3.112 13.17 10.045 13.2 20.233-.085 14.746-.487 29.536-.153 44.283-.195 10.151.778 20.505-2.21 30.35z" fill="#00478C"></path>
  </symbol>
  <symbol fill="none" xmlns="http://www.w3.org/2000/svg" viewBox="0 0 92 70" id="letter-m">
    <path d="M2.748 10.077C5.963-6.058 14.935 5.415 24.417 1.401 36.934-2.878 42.1 7.353 51.667 3.517 67.824-3.935 89.405 6.33 91.074 24.648c.168 11.366-1.106 22.735-1.163 34.122.331 9.556-14.934 15.865-18.642 4.798-1.154-6.678-.399-13.512-.544-20.26-.462-5.017 1.672-10.698-.74-15.288-1.274-2.582-4.341-5.047-7.278-3.6-3.553 1.853-7.344 5.282-7.116 9.652.084 7.517.114 15.026.027 22.573.096 7.074-6.105 15.809-13.98 11.395-3.408-1.682-5.074-4.603-5.096-8.497-.078-8.294-.218-16.542-.242-24.828.514-6.704-4.566-12.364-11.481-11.019-3.118.808-4.064 4.5-3.724 7.387-.257 11.245 2.457 23.384-1.442 34.135-5.294 7.871-17.858 2.915-18.326-6.105-1.026-16.331.182-32.77 1.195-49.014.062-.046.116-.038.225-.022z" fill="#00478C"></path>
  </symbol>
  <symbol fill="none" xmlns="http://www.w3.org/2000/svg" viewBox="0 0 71 76" id="letter-n">
    <path d="M1.51 46.581c-.015-7.917.464-15.795-.54-23.683-.05-5.387.312-15.351 5.154-18.575 6.178-4.472 11.61 1.03 18.292-1.204C44.493-4.462 68.54 8.9 69.805 31.076c.135 11.929 5.238 41.415-11.161 43.498-25.69-.335 7.416-56.858-29.165-48.84-15.513 2.386-3.245 32.923-8.447 44.35-1.568 6.316-8.225 5.744-13.05 4.019-5.02-.896-6.052-4.22-6.15-7.516-.143-6.649-.068-13.36-.376-20.004l.055-.002z" fill="#00478C"></path>
  </symbol>
  <symbol fill="none" xmlns="http://www.w3.org/2000/svg" viewBox="0 0 71 76" id="letter-o">
    <path d="M50.6 71.819C34.716 80.685 13.606 74.743 4.779 58.8.923 51.427.294 42.534.483 34.424 2.7 4.525 37.677-9.806 60.705 8.964 70.24 15.372 70.797 28.79 70.85 39.25c-.48 13.09-7.496 27.515-20.251 32.568zM28.844 21.105l.043.1c-7.801 2.965-11.194 13.063-10.974 20.876.163 10.713 12.135 18.88 22.144 15.079 7.68-2.971 15.224-9.838 14.494-18.688-1.067-7.146-4.483-14.47-11.722-16.963-4.493-2.365-9.468-3.083-13.985-.404z" fill="#E70000"></path>
  </symbol>
  <symbol fill="none" xmlns="http://www.w3.org/2000/svg" viewBox="0 0 70 108" id="letter-p">
    <path d="M67.453 22.265c5.073 9.16 1.291 34.755-8.592 39.291-14.875 9.191-19.124 10.235-36.107 6.301-7.947.805 3.277 38.697-9.774 39.881-3.464.199-8.008.651-9.648-3.31C-.72 93.973 2.02 82.345 1.38 71.416c-.03-11.764-.232-23.52-.312-35.263.897-8.703-3.97-28.597 4.924-32.501 6.306-2.99 7.487 5 19.133-.593C41.71-3.324 61.566 5.44 67.454 22.265zm-38.327 1.921C7.139 32.723 23.01 61.246 44.09 48.81c17.056-11.127 2.203-32.954-14.964-24.624z" fill="#00478C"></path>
  </symbol>
  <symbol fill="none" xmlns="http://www.w3.org/2000/svg" viewBox="0 0 81 108" id="letter-q">
    <path d="M69.68 84.086c3.313-1.391 8.79-9.617 10.727-2.578 2.065 10.175-4.674 20.229-13.696 24.564-21.279 8.459-13.655-20.635-16.268-31.97-4.76-2.093-10.277.647-15.367.467-5.88.509-11.366-.805-16.543-3.68-12.92-7.777-19.5-24.653-17.04-39.358C6.278 8.602 27.897-3.659 50.044 4.074 54.032 5.166 56.02.271 59.789.575c7.766-.022 9.428 7.008 9.11 13.417.293 5.372.358 10.704.498 16.05-.03 11.581-.289 23.123-.548 34.665.307 6.44-1.112 13.285.83 19.38zM43.747 50.584c17.547-11.949 1.068-35.166-16.402-25.49-6.36 3.066-8.75 11.201-7.583 17.908 3.017 9.908 15.882 13.891 23.985 7.582z" fill="#00478C"></path>
  </symbol>
  <symbol fill="none" xmlns="http://www.w3.org/2000/svg" viewBox="0 0 48 83" id="letter-r">
    <path d="M43.926 21.69c-3.023 2.187-7.275 1.687-10.767 2.598-13.289 3.182-11.84 20.538-11.462 31.245.14 5.087.449 10.128.544 15.246.808 10.947-14.769 16.813-19.753 6.843-3.62-9.037-1.36-19.277-2.123-28.793C.406 39.033.357 29.3.08 19.52-.243 13.093.3 4.817 7.74 2.885c5.534-2.299 9.043 3.158 14.404.313C27.784.762 33.587-.456 39.748.608c7.616.473 8.713 8.432 7.829 14.548-.123 2.941-1.015 5.142-3.65 6.534z" fill="#00478C"></path>
  </symbol>
  <symbol fill="none" xmlns="http://www.w3.org/2000/svg" viewBox="0 0 58 81" id="letter-s">
    <path d="M49.568 73.134c-7.83 6.3-17.98 8.34-27.76 7.329C13.744 79.32 2.87 75.016 2.12 65.753c-1.08-6.91 3.825-14.434 11.39-12.777 20.385 11.367 36.697-3.801 6.27-6.9-6.944-.297-15.5-2.324-17.789-9.85-3.565-11.025.18-23.403 9.965-29.898C18.01 1.828 25.612-.52 33.172.553 42.275 1.874 56.264 4.07 57.406 15.34c.782 5.997-4.124 16.245-11.232 12.048-5.44-4.797-10.838-7.647-18.342-7.006-6.569.62-7.51 6.165-.51 7.515 8.16 2.16 17.279 3.17 23.533 9.377 10.543 9.38 8.454 26.757-1.286 35.86z" fill="#00478C"></path>
  </symbol>
  <symbol fill="none" xmlns="http://www.w3.org/2000/svg" viewBox="0 0 63 103" id="letter-t">
    <path d="M57.713 95.425c-5.288 8.907-17.305 8.205-25.483 4.398-4.591-2.475-7.475-7.098-11.07-10.747-2.056-2.59-2.114-6.235-2.945-9.289-.751-4.559-1.151-9.132-.893-13.768-.184-3.193.553-7.274-3.839-7.972-3.14-.734-6.796.261-9.506-1.992-4.938-5.446-5.803-16.273 1.218-20.38 3.157-2.175 10.28-.09 11.41-4.429 1.675-8.9-3.278-21.493 3.554-28.32 10.349-9.215 19.197 7.177 17.133 16.609.054 10.912-3.194 14.516 10.136 14.073 5.678-.129 12.407 6.22 10.446 12.532-1.326 5.35-4.391 10.38-10.59 10.195-8.766-.024-11.875-.056-10.802 9.835.05 2.075.175 4.137.224 6.212.112 2.732 2.963 9.913 6.327 7.549 1.994-2.075 3.045-4.908 5.072-7.027 2.19-3.087 6.036-2.109 9.124-1.21 8.939 3.14 4.523 18.395.484 23.73z" fill="#00478C"></path>
  </symbol>
  <symbol fill="none" xmlns="http://www.w3.org/2000/svg" viewBox="0 0 118 117" id="letter-u">
    <path d="M85.97 93.61c-2.542 3.914-7.998 6.14-11.952 3.637-1.014-.66-2.106-.837-3.256-.65-16.07 3.719-28.273 4.881-39-10.05-6.885-10.484-5.822-23.834-6.115-35.863 1.476-7.99-3.065-22.866 6.033-26.393 19.871-4.77 13.01 32.103 14.013 43.426-.161 8.326 10.16 14.119 17.032 9.263 10.321-5.89 4.923-30.973 6.812-42.176-.224-14.95 14.303-15.39 17.746-1.435 2.508 12.336 1.312 25.119 1.495 37.676-.797 7.329 1.391 16.059-2.808 22.564z" fill="#E70000"></path>
  </symbol>
  <symbol fill="none" xmlns="http://www.w3.org/2000/svg" viewBox="0 0 71 80" id="letter-v">
    <path d="M57.228 46.2c-4.39 9.993-8.128 20.273-13.453 29.795-3.948 6.114-12.28 3.35-14.797-2.668-9.476-18.603-19.915-36.79-27.42-56.325C-3.67 8.953 5.36-3.673 13.828 2.744c5.435 4.845 7.237 12.766 11.06 18.82 2.513 4.938 5.004 9.927 7.517 14.865 1.145 2.72 4.16 6.382 5.878 1.925 5.912-11.541 9.576-24.25 16.199-35.359 5.99-7.073 15.104.467 15.796 8.32 1.034 4.888-2.091 9.266-3.816 13.6-3.133 7.13-6.468 14.173-9.234 21.285z" fill="#00478C"></path>
  </symbol>
  <symbol fill="none" xmlns="http://www.w3.org/2000/svg" viewBox="0 0 86 81" id="letter-w">
    <path d="M24.863 29.26c5.584-6.615 7.237-15.53 11.376-22.968C50.006-8.667 56.748 20.81 60.4 30.1c2.56 5.83 5.706-12.187 6.734-14.434.6-2.065 1.198-4.13 1.869-6.226 1.22-4.772 8.396-8.139 12.76-4.419 3.11 3.154 4.71 6.82 3.613 11.287-2.603 11.55-5.959 22.913-9.417 34.236-3.396 8.092-4.401 23.9-11.56 28.398-3.17 2.266-8.804 2.706-10.432-1.621-2.771-6.922-5.062-14.004-7.517-20.975-1.094-2.277-2.294-12.054-5.793-6.488-5.255 8.583-8.422 18.307-13.89 26.685-2.327 2.963-5.142 2.888-7.822 1.744C9.259 73.063 10.838 59.5 7.881 50.255 5.874 40.566 4.04 30.889 2.158 21.19c-1.185-5.568-3.111-11.793.6-16.858 2.924-4.438 10.314-5.114 13.61.659 4.544 7.52 4.133 16.882 8.495 24.27z" fill="#00478C"></path>
  </symbol>
  <symbol fill="none" xmlns="http://www.w3.org/2000/svg" viewBox="0 0 61 81" id="letter-x">
    <path d="M58.95 13.72c-2.827 8.722-11.393 14.08-15.272 22.281-2.61 5.48 8.314 12.562 11.155 17.11 3.554 3.836 6.67 8.631 5.073 14.165-1.586 6.106-7.878 11.7-14.35 9.329-5.15-2.401-7.31-8.582-11.114-12.544-3.989-4.526-9.672 8.922-13.301 11.1-8.51 8.848-20.033 5.356-20.075-7.408.691-9.657 10.028-15.94 14.451-24.046 2.127-3.337-2.088-5.82-3.662-8.364C8.127 29.466 2.255 24.53.717 17.554-.316 10.606 4.51-.178 12.927 2.791c6.766 2.338 9.822 9.395 14.223 14.491 1.448 1.77 3.587 5.154 5.716 2.217C37.446 15.137 44.756 1.173 50.19.921c7.725-1.722 11.296 6.56 8.76 12.8z" fill="#00478C"></path>
  </symbol>
  <symbol fill="none" xmlns="http://www.w3.org/2000/svg" viewBox="0 0 64 145" id="letter-y">
    <path d="M33.527 74.241c5.84-10.171 9.67-21.178 14.336-31.89 2.917-8.904 15.018-8.656 15.43 1.488-.426 10.633-7.038 19.96-10.501 29.813-7.447 16.445-14.315 33.073-21.762 49.518-4.357 7.521-6.85 23.709-18.307 21.299-11.84-7.829 5.475-30.245 8.133-40.275 2.204-7.714-9.124-23.237-12.076-31.3C6.108 65.342-.127 58.129.45 49.887c.213-7.366 9.985-16.728 15.615-8.3 6.255 10.7 10.867 22.217 17.462 32.654z" fill="#00478C"></path>
    <path d="M43.375 11.093C44.449 6.21 41.355 1.38 36.463.305c-4.891-1.077-9.728 2.007-10.802 6.889-1.074 4.88 2.02 9.71 6.912 10.787 4.891 1.077 9.727-2.007 10.802-6.888z" fill="#E80000"></path>
  </symbol>
  <symbol fill="none" xmlns="http://www.w3.org/2000/svg" viewBox="0 0 58 80" id="letter-z">
    <path d="M27.27 25.91c-7.214-1.98-19.673 3.503-23.877-4.303C.1 14.235 2.259 1.717 12.116 1.642c3.08.056 6.22.005 9.302.006 9.518.071 19.014-.462 28.464-1.163 8.866-.073 9.199 11.15 6.174 17.249-6.771 12.324-16.635 22.78-25.159 33.912-4.042 9.67 19.057.804 22.605 6.487 4.835 3.226 3.238 9.402 2.043 14.226-2.078 6.92-9.242 7.084-15.294 7.034-7.445.259-14.87.135-22.314.394-7.023.612-16.462-.939-17.159-9.49-.73-3.829-.171-8.083 2.256-11.249C11.113 48.002 20.312 37.621 27.27 25.91z" fill="#00478C"></path>
  </symbol>
</svg>