<svg width="92" height="145" viewBox="0 0 92 145" fill="none" xmlns="http://www.w3.org/2000/svg">
<rect width="92" height="145" fill="white"/>
<path d="M64.391 108.071C45.897 114.165 31.6267 109.897 20.8563 93.4873C9.74848 78.8434 15.4559 54.3997 29.4688 43.5395C41.3902 33.5199 64.9408 30.2783 74.196 45.1463C78.1635 53.0906 71.836 63.9468 62.6601 59.1793C49.5379 52.9594 34.7521 60.6537 35.5496 75.8144C35.7736 84.1042 43.3519 90.4058 51.2264 88.8673C55.1575 87.9246 59.1847 87.2388 62.8024 85.3008C69.7281 82.0089 76.6187 88.0406 76.4139 95.0268C75.3547 101.454 70.4268 106.166 64.391 108.071Z" fill="#00478C"/>
</svg>
