<svg width="92" height="145" viewBox="0 0 92 145" fill="none" xmlns="http://www.w3.org/2000/svg">
<rect width="92" height="145" fill="white"/>
<path d="M65.9159 62.4692C62.8927 64.6563 58.6406 64.1564 55.1483 65.0674C41.8594 68.2489 43.3076 85.6051 43.6862 96.3122C43.8272 101.399 44.1352 106.44 44.2309 111.558C45.038 122.505 29.4615 128.371 24.4776 118.401C20.8577 109.364 23.1173 99.1242 22.3545 89.6085C22.3959 79.8122 22.3465 70.0776 22.0683 60.2991C21.7468 53.8726 22.2901 45.5959 29.7304 43.6637C35.2642 41.3656 38.7731 46.8226 44.1342 43.9774C49.7732 41.5413 55.5765 40.3228 61.7369 41.3866C69.3529 41.8602 70.4505 49.8194 69.5664 55.9354C69.4429 58.8767 68.551 61.0775 65.9159 62.4692Z" fill="#00478C"/>
</svg>
