<svg width="92" height="145" viewBox="0 0 92 145" fill="none" xmlns="http://www.w3.org/2000/svg">
<rect width="92" height="145" fill="white"/>
<path d="M37.7187 114.794C41.1183 117.659 45.505 117.389 48.8113 114.671C50.943 111.943 51.3118 107.907 51.6787 104.497C51.8361 92.6234 51.9164 80.7597 51.6115 68.9437C51.5408 62.2627 50.9214 55.5715 52.1119 48.969C53.2042 46.056 57.0216 44.644 60.0212 44.5462C62.987 44.4916 67.5054 43.697 68.4804 47.5274C70.438 54.2875 69.4861 61.5647 69.9457 68.5495C70.5228 84.2048 70.5266 99.9702 68.5908 115.546C67.4021 123.126 65.343 131.91 57.7683 135.548C46.7539 141.451 30.1304 138.229 23.0667 127.759C18.7169 117.736 28.469 105.964 37.8972 114.655C37.7863 114.708 37.7525 114.751 37.7187 114.794Z" fill="#00478C"/>
<path d="M66.7918 37.839C58.6547 45.85 45.9807 35.8799 51.5 25.9633C58.474 15.7882 73.7866 27.1918 66.7918 37.839Z" fill="#00478C"/>
</svg>
