<svg width="92" height="145" viewBox="0 0 92 145" fill="none" xmlns="http://www.w3.org/2000/svg">
<rect width="92" height="145" fill="white"/>
<path d="M27.7045 64.3885C32.9397 57.494 34.1307 48.504 37.8794 40.863C50.8547 25.2129 59.1107 54.3026 63.2364 63.391C66.095 69.0811 68.3053 50.9253 69.2161 48.6287C69.7078 46.5353 70.1994 44.4419 70.7609 42.3146C71.7336 37.4858 78.7249 33.7525 83.2754 37.2422C86.5453 40.2307 88.3317 43.8087 87.4665 48.3266C85.4647 59.9962 82.6999 71.5178 79.8311 83.0035C76.8579 91.261 76.6709 107.099 69.7545 111.961C66.7047 114.388 61.101 115.119 59.2522 110.881C56.1271 104.112 53.4731 97.1576 50.6615 90.323C49.4514 88.1051 47.748 78.4038 44.541 84.1428C39.7368 92.9856 37.0765 102.86 32.0485 111.51C29.878 114.589 27.0619 114.66 24.3269 113.655C14.3849 108.939 15.2607 95.3126 11.8301 86.2325C9.32585 76.6603 6.99536 67.0903 4.61293 57.5022C3.14253 52.0022 0.896739 45.8856 4.34172 40.6352C7.03229 36.0524 14.3772 34.9953 17.9668 40.59C22.8938 47.8663 22.9673 57.2359 27.7045 64.3885Z" fill="#00478C"/>
</svg>
