<svg width="92" height="145" viewBox="0 0 92 145" fill="none" xmlns="http://www.w3.org/2000/svg">
<rect width="92" height="145" fill="white"/>
<path d="M68.2158 81.0233C63.8246 91.0159 60.0874 101.296 54.7621 110.818C50.8147 116.932 42.483 114.169 39.965 108.15C30.4894 89.5471 20.0507 71.3598 12.5453 51.8256C7.31715 43.7765 16.3481 31.1499 24.8151 37.5668C30.2505 42.4118 32.0526 50.3331 35.8762 56.3869C38.3888 61.3254 40.8793 66.3141 43.3919 71.2526C44.5379 73.9729 47.5518 77.634 49.2704 73.177C55.1826 61.6361 58.8464 48.9272 65.4692 37.8184C71.4594 30.7452 80.5734 38.2852 81.265 46.1379C82.299 51.0258 79.1742 55.404 77.4495 59.7386C74.316 66.869 70.9812 73.9109 68.2158 81.0233Z" fill="#00478C"/>
</svg>
