<svg width="92" height="70" viewBox="0 0 92 70" fill="none" xmlns="http://www.w3.org/2000/svg">
<path d="M2.74782 10.0771C5.96276 -6.05768 14.9349 5.41514 24.417 1.40054C36.9345 -2.87799 42.1005 7.35257 51.6664 3.5174C67.8254 -3.93516 89.4057 6.33013 91.0751 24.6483C91.2435 36.0136 89.9691 47.3832 89.9124 58.7701C90.2434 68.3255 74.9783 74.6347 71.27 63.5682C70.1158 56.8901 70.8713 50.0558 70.7262 43.3078C70.264 38.2907 72.3984 32.6098 69.9855 28.0205C68.7117 25.4378 65.6449 22.9732 62.7083 24.4193C59.1554 26.2727 55.3644 29.702 55.5915 34.0722C55.6758 41.5892 55.706 49.0981 55.6194 56.6449C55.7153 63.719 49.5137 72.454 41.6382 68.0398C38.2313 66.3576 36.5647 63.4375 36.5431 59.5431C36.4652 51.2488 36.3249 43.0007 36.3013 34.7146C36.8152 28.0106 31.735 22.3512 24.8197 23.6964C21.7022 24.5037 20.7559 28.1963 21.0963 31.0827C20.8391 42.328 23.5532 54.4672 19.6543 65.2178C14.3598 73.0893 1.79568 68.1332 1.32829 59.113C0.3016 42.7819 1.50992 26.3439 2.5227 10.0987C2.58514 10.0525 2.63936 10.0607 2.74782 10.0771Z" fill="#00478C"/>
</svg>
