<svg width="71" height="76" viewBox="0 0 71 76" fill="none" xmlns="http://www.w3.org/2000/svg">
<path d="M1.51086 46.5814C1.49465 38.6636 1.97353 30.7861 0.970484 22.8978C0.919859 17.5105 1.28168 7.54693 6.12427 4.32346C12.3015 -0.149464 17.7331 5.35258 24.4159 3.11909C44.4932 -4.46201 68.5411 8.89896 69.8049 31.0764C69.9405 43.0047 75.0435 72.4911 58.6436 74.574C32.9532 74.239 66.0599 17.7159 29.479 25.7333C13.9661 28.1196 26.2339 58.6575 21.0319 70.0848C19.464 76.4001 12.8074 75.8284 7.98205 74.1025C2.96197 73.2072 1.93017 69.8836 1.83204 66.5873C1.68898 59.9381 1.76359 53.2273 1.45605 46.583C1.40123 46.5846 1.45604 46.583 1.51086 46.5814Z" fill="#00478C"/>
</svg>
