<svg width="92" height="145" viewBox="0 0 92 145" fill="none" xmlns="http://www.w3.org/2000/svg">
<rect width="92" height="145" fill="white"/>
<path d="M11.5444 84.5988C11.5282 76.681 12.007 68.8035 11.004 60.9152C10.9534 55.5279 11.3152 45.5644 16.1578 42.3409C22.335 37.868 27.7666 43.37 34.4495 41.1365C54.5267 33.5554 78.5746 46.9164 79.8384 69.0938C79.974 81.0221 85.077 110.509 68.6771 112.591C42.9867 112.256 76.0934 55.7333 39.5125 63.7507C23.9996 66.1371 36.2674 96.6749 31.0654 108.102C29.4975 114.418 22.8409 113.846 18.0156 112.12C12.9955 111.225 11.9637 107.901 11.8656 104.605C11.7225 97.9555 11.7971 91.2448 11.4896 84.6004C11.4347 84.602 11.4895 84.6004 11.5444 84.5988Z" fill="#00478C"/>
</svg>
