<svg width="70" height="76" viewBox="0 0 70 76" fill="none" xmlns="http://www.w3.org/2000/svg">
<path d="M5.0907 53.3077C-4.94887 34.8314 3.81992 4.38664 26.3953 0.527861C35.223 -0.0506877 45.4287 -0.812448 52.6347 5.19493C60.0973 10.2231 65.0742 17.8044 67.7315 26.2716C70.0174 34.9807 70.8999 48.339 58.3725 47.9744C53.1876 47.9986 48.0254 48.1949 42.8645 48.2685C40.6759 48.4194 24.1111 46.5439 25.7938 49.8729C27.2591 52.8807 31.1365 53.3103 34.078 53.9518C42.3655 55.5277 50.2263 51.3325 58.3327 51.5324C59.3635 51.6403 60.3098 52.7046 60.8156 53.6174C66.3848 63.1675 58.1287 71.948 48.9812 74.7567C30.8523 78.7069 12.2637 71.0451 5.0907 53.3077ZM50.9209 24.3937C46.6303 16.9662 37.126 16.5322 29.6331 18.5959C26.3307 19.4724 20.0498 23.0201 20.8404 27.0277C21.3716 27.8671 22.1862 27.5313 22.8992 27.489C29.8588 26.9663 36.7622 27.0811 43.7094 27.6626C46.1663 27.686 52.2015 28.5287 50.9209 24.3937Z" fill="#E70000"/>
</svg>
