<svg width="58" height="80" viewBox="0 0 58 80" fill="none" xmlns="http://www.w3.org/2000/svg">
<path d="M27.2704 25.9103C20.0561 23.93 7.59731 29.4129 3.39291 21.6071C0.100949 14.2348 2.2593 1.71727 12.1159 1.64237C15.1953 1.69788 18.3355 1.64685 21.4178 1.64759C30.9363 1.71931 40.4323 1.18568 49.8822 0.484731C58.748 0.411548 59.081 11.6345 56.0564 17.7339C49.2848 30.0585 39.4212 40.5144 30.8973 51.6464C26.8553 61.3163 49.9539 52.4499 53.5017 58.1332C58.3373 61.359 56.7397 67.5349 55.5449 72.3593C53.467 79.2784 46.3027 79.443 40.2507 79.3927C32.806 79.652 25.3819 79.528 17.9373 79.7874C10.914 80.3989 1.47495 78.8484 0.778251 70.2972C0.0481559 66.468 0.606868 62.2137 3.03359 59.0484C11.1125 48.0023 20.3117 37.6207 27.2704 25.9103Z" fill="#00478C"/>
</svg>
