<svg width="64" height="145" viewBox="0 0 64 145" fill="none" xmlns="http://www.w3.org/2000/svg">
<path d="M33.5272 74.2413C39.3679 64.0699 43.1976 53.0628 47.8627 42.3519C50.7796 33.4465 62.8812 33.6952 63.2935 43.8389C62.8666 54.4717 56.2548 63.7995 52.7918 73.6518C45.3451 90.0967 38.477 106.725 31.0303 123.17C26.6734 130.691 24.1797 146.879 12.7226 144.469C0.882662 136.64 18.1981 114.224 20.8559 104.194C23.0605 96.4801 11.7322 80.9571 8.77953 72.8938C6.10833 65.3418 -0.126787 58.1286 0.449085 49.8873C0.663483 42.5212 10.4345 33.1587 16.0646 41.5866C22.3201 52.2864 26.9325 63.8038 33.5272 74.2413Z" fill="#00478C"/>
<path d="M43.3749 11.0926C44.4493 6.21132 41.355 1.38143 36.4634 0.304741C31.5719 -0.771947 26.7355 2.31229 25.6611 7.19358C24.5866 12.0749 27.681 16.9048 32.5726 17.9814C37.4641 19.0581 42.3005 15.9739 43.3749 11.0926Z" fill="#E80000"/>
</svg>
