<svg width="92" height="145" viewBox="0 0 92 145" fill="none" xmlns="http://www.w3.org/2000/svg">
<rect width="92" height="145" fill="white"/>
<path d="M48.1154 74.1509C53.9561 63.9795 57.7859 52.9725 62.4509 42.2615C65.3679 33.3561 77.4694 33.6048 77.8818 43.7485C77.4549 54.3814 70.8431 63.7092 67.3801 73.5615C59.9334 90.0064 53.0653 106.635 45.6186 123.08C41.2617 130.601 38.768 146.788 27.3109 144.379C15.4709 136.55 32.7863 114.134 35.4442 104.104C37.6487 96.3897 26.3204 80.8667 23.3678 72.8035C20.6966 65.2515 14.4615 58.0383 15.0373 49.7969C15.2517 42.4308 25.0228 33.0683 30.6528 41.4963C36.9084 52.196 41.5207 63.7135 48.1154 74.1509Z" fill="#00478C"/>
<path d="M57.9632 11.0022C59.0376 6.12096 55.9432 1.29107 51.0517 0.214379C46.1601 -0.862309 41.3237 2.22193 40.2493 7.10322C39.1749 11.9845 42.2693 16.8144 47.1608 17.8911C52.0524 18.9678 56.8887 15.8835 57.9632 11.0022Z" fill="#E80000"/>
</svg>
