<svg width="92" height="145" viewBox="0 0 92 145" fill="none" xmlns="http://www.w3.org/2000/svg">
<rect width="92" height="145" fill="white"/>
<path d="M54.0909 107.765C55.1278 92.8922 54.6324 77.8881 55.1562 62.9458C54.9206 58.1719 55.8746 51.0268 50.464 48.9528C42.1165 45.4343 37.2774 50.1306 36.5124 58.5059C36.4353 68.0264 36.8994 77.497 36 86.9764C36.6485 94.1686 34.7382 101.948 38.3743 108.552C41.8343 115.797 52.784 117.048 54.0909 107.765Z" fill="#E70000"/>
<path d="M55.1091 40.3754C56.3766 27.197 38.4417 24.1343 38.3191 38.3377C37.8591 42.7469 42.0665 46.6085 46.2836 46.6872C49.9177 46.3519 55.4993 45.135 55.1091 40.3754Z" fill="#E70000"/>
</svg>
