<svg width="67" height="107" viewBox="0 0 67 107" fill="none" xmlns="http://www.w3.org/2000/svg">
<path d="M18.9185 8.55196C21.516 16.5385 18.8202 24.9936 20.1036 33.1802C20.4025 36.0594 20.5827 36.2935 23.4242 35.4343C37.744 31.3343 56.5731 36.7329 61.5975 51.8992C71.2948 69.0518 65.3314 93.6465 47.5871 103.216C37.5713 109.007 29.656 106.056 19.5736 103.317C16.0027 103.413 13.5548 108.094 9.45563 106.117C1.06288 103.699 1.27177 94.1219 1.43383 87.0091C1.39881 71.9159 2.20194 56.7571 1.71395 41.6778C1.40667 34.9254 1.37872 28.1511 1.29793 21.3918C1.33782 14.6554 -2.65661 6.77833 5.08168 2.42783C10.719 -1.27252 17.75 1.98575 18.9185 8.55196ZM21.0862 77.927C29.064 94.6532 54.2687 80.356 45.6159 62.4526C36.5706 46.5977 14.8838 60.8136 21.0862 77.927Z" fill="#00478C"/>
</svg>
