<svg width="61" height="81" viewBox="0 0 61 81" fill="none" xmlns="http://www.w3.org/2000/svg">
<path d="M58.9498 13.7206C56.1233 22.4418 47.5574 27.8007 43.6778 36.001C41.0688 41.4807 51.9915 48.5628 54.8334 53.1113C58.3872 56.947 61.5027 61.7424 59.9056 67.2759C58.3204 73.382 52.0284 78.9754 45.5566 76.6049C40.4056 74.2035 38.2461 68.023 34.4423 64.0608C30.4531 59.5346 24.7705 72.9835 21.1406 75.1615C12.6308 84.009 1.10798 80.5175 1.06616 67.7529C1.75696 58.0957 11.0936 51.8125 15.5174 43.7067C17.6441 40.3701 13.4285 37.8875 11.8546 35.343C8.12721 29.4663 2.25537 24.53 0.716515 17.5544C-0.316366 10.6058 4.51038 -0.177596 12.9267 2.79096C19.6927 5.12943 22.7494 12.1859 27.1504 17.2821C28.5978 19.0513 30.7366 22.4362 32.8662 19.499C37.4462 15.1373 44.7556 1.1734 50.1888 0.920574C57.9136 -0.801039 61.4852 7.48037 58.9498 13.7206Z" fill="#00478C"/>
</svg>
