<svg width="92" height="145" viewBox="0 0 92 145" fill="none" xmlns="http://www.w3.org/2000/svg">
<rect width="92" height="145" fill="white"/>
<path d="M2.8102 52.7434C6.02514 36.6086 14.9973 48.0814 24.4794 44.0668C36.9969 39.7883 42.1628 50.0188 51.7288 46.1837C67.8878 38.7311 89.468 48.9964 91.1374 67.3146C91.3059 78.6799 90.0314 90.0495 89.9748 101.436C90.3058 110.992 75.0407 117.301 71.3324 106.234C70.1782 99.5563 70.9337 92.7221 70.7886 85.9741C70.3264 80.957 72.4607 75.2761 70.0479 70.6868C68.7741 68.104 65.7073 65.6394 62.7707 67.0856C59.2178 68.9389 55.4267 72.3683 55.6539 76.7384C55.7382 84.2555 55.7683 91.7644 55.6818 99.3112C55.7776 106.385 49.5761 115.12 41.7006 110.706C38.2937 109.024 36.6271 106.104 36.6054 102.209C36.5276 93.9151 36.3873 85.6669 36.3637 77.3808C36.8776 70.6768 31.7974 65.0174 24.8821 66.3626C21.7646 67.17 20.8183 70.8625 21.1587 73.7489C20.9015 84.9943 23.6156 97.1334 19.7166 107.884C14.4222 115.756 1.85806 110.8 1.39067 101.779C0.363978 85.4482 1.5723 69.0102 2.58507 52.7649C2.64752 52.7188 2.70173 52.727 2.8102 52.7434Z" fill="#00478C"/>
</svg>
