<svg width="92" height="145" viewBox="0 0 92 145" fill="none" xmlns="http://www.w3.org/2000/svg">
<rect width="92" height="145" fill="white"/>
<path d="M22.4814 111.939C17.2345 106.477 18.0416 98.2313 18.0923 91.3187C16.6158 68.1625 19.2517 44.7803 17 21.7151C17.036 11.2692 33.0846 9.51725 34.8007 20.2825C35.6882 25.0433 35.9545 29.8148 36.0656 34.589C36.7525 38.9261 33.5204 48.5728 41.016 46.1139C56.2024 43.8331 71.9731 54.5116 76.5406 68.9554C79.363 78.4201 78.3142 88.6505 77.49 98.3334C77.047 102.418 76.7605 106.578 76.4346 110.7C74.3524 121.918 61.3746 118.764 59.7838 108.579C58.5859 98.6978 59.9094 88.6569 59.9919 78.715C59.7103 72.9341 55.0945 65.5582 48.55 66.7194C43.9465 67.8471 38.5542 70.7357 37.5424 75.7234C37 86.0616 37.5445 96.381 36.8862 106.76C36.9701 114.874 26.9461 117.027 22.4814 111.939Z" fill="#00478C"/>
</svg>
