<svg width="92" height="145" viewBox="0 0 92 145" fill="none" xmlns="http://www.w3.org/2000/svg">
<rect width="92" height="145" fill="white"/>
<path d="M43.7903 58.426C36.576 56.4456 24.1172 61.9285 19.9128 54.1227C16.6208 46.7504 18.7792 34.2329 28.6358 34.158C31.7152 34.2135 34.8554 34.1625 37.9377 34.1632C47.4562 34.2349 56.9522 33.7013 66.4021 33.0004C75.2679 32.9272 75.6009 44.1502 72.5763 50.2495C65.8047 62.5741 55.9411 73.03 47.4172 84.162C43.3752 93.8319 66.4738 84.9656 70.0216 90.6488C74.8572 93.8746 73.2596 100.051 72.0648 104.875C69.9869 111.794 62.8226 111.959 56.7706 111.908C49.3259 112.168 41.9018 112.044 34.4572 112.303C27.4339 112.915 17.9948 111.364 17.2981 102.813C16.5681 98.9836 17.1268 94.7293 19.5535 91.564C27.6324 80.518 36.8316 70.1363 43.7903 58.426Z" fill="#00478C"/>
</svg>
