<svg width="66" height="108" viewBox="0 0 66 108" fill="none" xmlns="http://www.w3.org/2000/svg">
<path d="M20.6726 36.6304C35.9025 29.0814 49.0512 41.8681 48.6921 33.1838C49.3704 26.5681 45.8278 7.23523 49.9516 3.57835C57.0669 -3.76719 65.5167 2.37001 65.3715 11.4262C65.7066 32.8256 66.1127 54.2563 65.6113 75.6268C64.8333 83.8106 65.9298 92.268 63.6642 100.264C62.9837 103.527 58.7456 102.934 56.2063 103.683C53.8919 104.403 51.8247 102.263 49.6093 103.24C40.7664 106.431 30.7282 109.733 21.7374 105.394C11.7051 101.105 3.27432 92.431 1.86139 81.3316C-2.38967 65.038 4.30891 43.3834 20.6726 36.6304ZM36.6114 84.4532C55.9688 77.3636 45.1072 46.7495 25.8777 56.9072C12.5086 65.9115 19.1107 90.7058 36.6114 84.4532Z" fill="#00478C"/>
</svg>
