<svg width="49" height="117" viewBox="0 0 49 117" fill="none" xmlns="http://www.w3.org/2000/svg">
<path d="M15.873 93.2576C19.2726 96.1225 23.6593 95.8528 26.9656 93.1349C29.0973 90.4061 29.4661 86.37 29.833 82.9601C29.9904 71.0869 30.0707 59.2232 29.7658 47.4072C29.6951 40.7262 29.0757 34.035 30.2662 27.4324C31.3585 24.5195 35.1759 23.1075 38.1755 23.0096C41.1413 22.9551 45.6597 22.1604 46.6347 25.9909C48.5923 32.751 47.6404 40.0281 48.1 47.013C48.6771 62.6682 48.6809 78.4337 46.7451 94.0091C45.5564 101.589 43.4973 110.373 35.9226 114.011C24.9082 119.914 8.28468 116.693 1.22098 106.223C-3.12881 96.1992 6.62325 84.4279 16.0515 93.1181C15.9406 93.171 15.9068 93.2143 15.873 93.2576Z" fill="#00478C"/>
<path d="M44.9461 16.3024C36.809 24.3135 24.135 14.3433 29.6543 4.42675C36.6283 -5.74834 51.9409 5.65531 44.9461 16.3024Z" fill="#00478C"/>
</svg>
