<svg width="20" height="86" viewBox="0 0 20 86" fill="none" xmlns="http://www.w3.org/2000/svg">
<path d="M18.8019 78.9994C19.8387 64.1268 19.3434 49.1226 19.8671 34.1804C19.6316 29.4065 20.5855 22.2614 15.175 20.1873C6.82743 16.6688 1.98837 21.3652 1.22329 29.7405C1.1462 39.261 1.61035 48.7316 0.710938 58.211C1.35946 65.4031 -0.550875 73.1823 3.08525 79.7869C6.5452 87.0315 17.4949 88.2825 18.8019 78.9994Z" fill="#E70000"/>
<path d="M19.82 11.6099C21.0876 -1.56845 3.15261 -4.63116 3.03002 9.57225C2.57001 13.9815 6.77741 17.8431 10.9946 17.9218C14.6286 17.5865 20.2102 16.3696 19.82 11.6099Z" fill="#E70000"/>
</svg>
