<svg width="92" height="145" viewBox="0 0 92 145" fill="none" xmlns="http://www.w3.org/2000/svg">
<g clip-path="url(#clip0)">
<rect width="92" height="145" fill="white"/>
<path d="M74.6959 121.525C78.0092 120.133 83.4875 111.908 85.4241 118.946C87.489 129.121 80.7494 139.176 71.7272 143.511C50.4491 151.97 58.0728 122.875 55.4596 111.541C50.6992 109.447 45.183 112.188 40.0923 112.007C34.2128 112.516 28.7268 111.203 23.5499 108.327C10.6302 100.551 4.04896 83.6744 6.50906 68.9698C11.2954 46.0405 32.9149 33.7787 55.0613 41.5127C59.0491 42.604 61.0368 37.7095 64.8059 38.0136C72.5713 37.9917 74.2336 45.0219 73.9151 51.43C74.2089 56.8021 74.2732 62.1341 74.414 67.4795C74.3842 79.0618 74.1249 90.6038 73.8656 102.146C74.1722 108.584 72.7537 115.431 74.6959 121.525ZM48.7643 88.0229C66.3112 76.0739 49.8326 52.8561 32.3629 62.5326C26.0025 65.5985 23.613 73.7334 24.7795 80.4405C27.7966 90.3483 40.6621 94.3315 48.7643 88.0229Z" fill="#00478C"/>
</g>
<defs>
<clipPath id="clip0">
<rect width="92" height="145" fill="white"/>
</clipPath>
</defs>
</svg>
