<svg width="71" height="80" viewBox="0 0 71 80" fill="none" xmlns="http://www.w3.org/2000/svg">
<path d="M57.2285 46.2001C52.8372 56.1927 49.1001 66.4727 43.7748 75.995C39.8273 82.1086 31.4956 79.3459 28.9777 73.3266C19.502 54.7239 9.0633 36.5366 1.55793 17.0024C-3.67021 8.95333 5.36074 -3.6733 13.8277 2.74356C19.2631 7.58855 21.0653 15.5098 24.8888 21.5637C27.4014 26.5022 29.892 31.4909 32.4046 36.4294C33.5505 39.1497 36.5645 42.8108 38.283 38.3538C44.1952 26.8128 47.859 14.104 54.4819 2.99521C60.472 -4.07804 69.5861 3.46198 70.2777 11.3147C71.3116 16.2026 68.1868 20.5808 66.4621 24.9154C63.3286 32.0457 59.9938 39.0877 57.2285 46.2001Z" fill="#00478C"/>
</svg>
