<svg width="92" height="145" viewBox="0 0 92 145" fill="none" xmlns="http://www.w3.org/2000/svg">
<rect width="92" height="145" fill="white"/>
<path d="M33.0586 45.311C48.2885 37.762 61.4372 50.5488 61.0781 41.8645C61.7564 35.2487 58.2138 15.9159 62.3376 12.259C69.4529 4.91344 77.9027 11.0506 77.7575 20.1068C78.0925 41.5062 78.4987 62.9369 77.9973 84.3075C77.2193 92.4913 78.3158 100.949 76.0501 108.944C75.3697 112.208 71.1316 111.615 68.5923 112.364C66.2779 113.084 64.2107 110.944 61.9953 111.92C53.1524 115.112 43.1142 118.414 34.1233 114.074C24.091 109.786 15.6603 101.112 14.2474 90.0122C9.99632 73.7186 16.6949 52.0641 33.0586 45.311ZM48.9974 93.1339C68.3548 86.0442 57.4932 55.4301 38.2637 65.5878C24.8946 74.5922 31.4967 99.3864 48.9974 93.1339Z" fill="#00478C"/>
</svg>
