<svg width="92" height="145" viewBox="0 0 92 145" fill="none" xmlns="http://www.w3.org/2000/svg">
<rect width="92" height="145" fill="white"/>
<path d="M22.5503 49.2921C30.4664 42.8174 41.4272 38.8587 51.455 42.2285C55.5195 43.0664 59.8433 47.2317 63.8623 44.4853C68.3862 41.2303 75.1053 43.5441 77.1084 48.5542C79.7794 58.2055 78.813 68.6067 79.281 78.5663C79.0388 90.2264 79.2614 101.92 78.0898 113.513C76.3978 124.251 72.1023 137.02 61.4355 141.74C52.1441 146.286 40.5168 146.109 31.7456 140.495C30.0089 139.241 28.1474 138.094 26.4164 136.763C19.4638 131.824 18.1871 120.172 25.2153 115.696C34.313 112.187 39.8937 125.123 49.1017 122.75C54.4786 122.165 59.8085 119.591 61.7654 114.205C62.1786 112.833 63.0826 107.994 61.069 107.849C54.2635 108.798 47.5223 111.504 40.5706 111.275C23.343 108.399 12.0488 90.6131 13.0631 73.7927C13.0684 64.8014 14.9783 55.3246 22.5503 49.2921ZM34.9655 85.0251C42.8126 94.6992 56.1856 92.8607 61.3543 81.439C66.4901 68.8861 52.8485 61.7525 42.5436 61.5935C31.7006 62.9138 26.4628 77.3667 34.9655 85.0251Z" fill="#00478C"/>
</svg>
