<svg width="86" height="81" viewBox="0 0 86 81" fill="none" xmlns="http://www.w3.org/2000/svg">
<path d="M24.8625 29.2604C30.4469 22.6455 32.1008 13.729 36.2392 6.29195C50.0058 -8.66692 56.7479 20.8105 60.3984 30.0999C62.9593 35.9301 66.1046 17.9128 67.1329 15.6663C67.7321 13.6011 68.3312 11.5359 69.0019 9.44046C70.2228 4.6683 77.3976 1.30127 81.7617 5.02134C84.8728 8.17482 86.472 11.8404 85.3746 16.3075C82.7725 27.8581 79.4161 39.2214 75.9578 50.5436C72.5619 58.6364 71.5569 74.4435 64.3985 78.9416C61.2274 81.2079 55.5935 81.6484 53.966 77.3205C51.1948 70.3991 48.9037 63.3171 46.449 56.3463C45.3551 54.0689 44.1551 44.2924 40.656 49.8581C35.4013 58.4409 32.2343 68.165 26.7661 76.543C24.4394 79.5063 21.6235 79.4312 18.944 78.2869C9.25899 73.063 10.8376 59.5002 7.88074 50.255C5.87438 40.5662 4.04144 30.8886 2.15756 21.1902C0.973285 15.6216 -0.953492 9.39711 2.75815 4.33173C5.6819 -0.105912 13.0717 -0.782191 16.3673 4.99056C20.9119 12.5117 20.5012 21.8726 24.8625 29.2604Z" fill="#00478C"/>
</svg>
