<svg width="92" height="145" viewBox="0 0 92 145" fill="none" xmlns="http://www.w3.org/2000/svg">
<rect width="92" height="145" fill="white"/>
<path d="M70.6131 107.218C65.3243 116.125 53.3082 115.423 45.1294 111.616C40.5383 109.142 37.6549 104.518 34.0591 100.869C32.0041 98.279 31.9457 94.6347 31.1149 91.5808C30.3635 87.022 29.9634 82.4483 30.2216 77.8124C30.0372 74.6197 30.7751 70.5384 26.3829 69.8403C23.2425 69.1064 19.5863 70.1018 16.8766 67.8481C11.9391 62.4022 11.0732 51.5758 18.0943 47.4693C21.2517 45.2936 28.3753 47.378 29.5053 43.0399C31.18 34.1398 26.2265 21.5469 33.0583 14.7198C43.4074 5.50447 52.2553 21.8969 50.192 31.3284C50.2462 42.2406 46.9975 45.8444 60.3279 45.4011C66.0057 45.2727 72.7344 51.6211 70.7733 57.9335C69.4479 63.2837 66.3825 68.3128 60.1844 68.1286C51.4178 68.1044 48.3085 68.0727 49.382 77.9637C49.431 80.0381 49.5567 82.1007 49.6057 84.1751C49.7182 86.9076 52.569 94.0891 55.9327 91.7246C57.927 89.6496 58.9776 86.8165 61.0043 84.6973C63.1941 81.6101 67.0408 82.5887 70.1284 83.4879C79.0674 86.6281 74.6521 101.882 70.6131 107.218Z" fill="#00478C"/>
</svg>
