<svg width="92" height="145" viewBox="0 0 92 145" fill="none" xmlns="http://www.w3.org/2000/svg">
<rect width="92" height="145" fill="white"/>
<path d="M72.9697 108.609C70.4284 112.524 64.972 114.75 61.0176 112.247C60.0035 111.587 58.912 111.41 57.7624 111.597C41.6919 115.316 29.4885 116.478 18.7614 101.546C11.8768 91.0634 12.9398 77.7128 12.6471 65.6843C14.1225 57.6949 9.5822 42.818 18.6801 39.2908C38.5514 34.5204 31.6899 71.3942 32.6926 82.717C32.5318 91.043 42.8529 96.8359 49.7247 91.9798C60.0461 86.0899 54.6481 61.0073 56.5375 49.8036C56.3135 34.8531 70.8398 34.4148 74.2835 48.3689C76.7913 60.7052 75.5951 73.4876 75.7785 86.0452C74.9809 93.3736 77.1691 102.104 72.9697 108.609Z" fill="#E70000"/>
</svg>
