<svg width="92" height="145" viewBox="0 0 92 145" fill="none" xmlns="http://www.w3.org/2000/svg">
<rect width="92" height="145" fill="white"/>
<path d="M16.1197 88.1638C6.08018 69.6875 14.849 39.2428 37.4243 35.384C46.252 34.8054 56.4578 34.0437 63.6637 40.051C71.1263 45.0792 76.1033 52.6605 78.7605 61.1277C81.0465 69.8368 81.929 83.1952 69.4015 82.8305C64.2166 82.8547 59.0544 83.051 53.8936 83.1246C51.705 83.2755 35.1401 81.4 36.8229 84.729C38.2881 87.7368 42.1656 88.1664 45.107 88.8079C53.3946 90.3838 61.2553 86.1886 69.3617 86.3885C70.3925 86.4964 71.3389 87.5607 71.8447 88.4735C77.4138 98.0237 69.1578 106.804 60.0103 109.613C41.8814 113.563 23.2927 105.901 16.1197 88.1638ZM61.95 59.2498C57.6594 51.8223 48.155 51.3883 40.6621 53.452C37.3597 54.3285 31.0789 57.8762 31.8694 61.8838C32.4006 62.7232 33.2152 62.3874 33.9283 62.3451C40.8879 61.8224 47.7912 61.9372 54.7385 62.5187C57.1954 62.5421 63.2306 63.3848 61.95 59.2498Z" fill="#E70000"/>
</svg>
