<svg width="92" height="145" viewBox="0 0 92 145" fill="none" xmlns="http://www.w3.org/2000/svg">
<rect width="92" height="145" fill="white"/>
<path d="M65.8989 105.838C58.0697 112.139 47.9191 114.178 38.1384 113.167C30.0764 112.025 19.202 107.72 18.4517 98.4579C17.3716 91.5483 22.2768 84.0232 29.8425 85.6802C50.2271 97.0471 66.5388 81.8792 36.1117 78.781C29.1678 78.4835 20.6123 76.4564 18.3232 68.9302C14.7577 57.9051 18.5033 45.5271 28.2881 39.0321C34.3415 34.5314 41.9432 32.1845 49.5036 33.2577C58.6053 34.5784 72.5955 36.7741 73.7359 48.0434C74.5185 54.0407 69.6121 64.2882 62.5037 60.0916C57.0631 55.2944 51.6661 52.4444 44.1625 53.0859C37.5936 53.7054 36.6523 59.2499 43.6523 60.6008C51.8114 62.7598 60.9309 63.7704 67.1848 69.9774C77.7282 79.3573 75.6394 96.7347 65.8989 105.838Z" fill="#00478C"/>
</svg>
