<svg width="62" height="106" viewBox="0 0 62 106" fill="none" xmlns="http://www.w3.org/2000/svg">
<path d="M5.53745 99.8823C0.290545 94.42 1.09763 86.1741 1.14832 79.2615C-0.328182 56.1053 2.30774 32.723 0.0560303 9.65792C0.0920733 -0.787997 16.1407 -2.53997 17.8568 8.22523C18.7442 12.986 19.0106 17.7576 19.1217 22.5318C19.8086 26.8689 16.5765 36.5156 24.072 34.0567C39.2584 31.7759 55.0292 42.4544 59.5966 56.8981C62.419 66.3629 61.3702 76.5933 60.546 86.2762C60.1031 90.3609 59.8166 94.5207 59.4907 98.6423C57.4084 109.861 44.4307 106.707 42.8399 96.5216C41.6419 86.6406 42.9655 76.5997 43.048 66.6577C42.7663 60.8769 38.1505 53.501 31.6061 54.6622C27.0025 55.7899 21.6102 58.6785 20.5985 63.6662C20.056 74.0043 20.6005 84.3238 19.9422 94.7027C20.0262 102.817 10.0021 104.97 5.53745 99.8823Z" fill="#00478C"/>
</svg>
