<svg width="70" height="108" viewBox="0 0 70 108" fill="none" xmlns="http://www.w3.org/2000/svg">
<path d="M67.4534 22.2653C72.5262 31.4257 68.744 57.0205 58.8612 61.5561C43.9858 70.747 39.7374 71.7914 22.7542 67.8574C14.8075 68.6615 26.0312 106.554 12.9802 107.738C9.51627 107.937 4.97231 108.389 3.3324 104.428C-0.721481 93.973 2.02017 82.3452 1.37933 71.4163C1.34985 59.6516 1.1472 47.8968 1.06678 36.1525C1.96413 27.4503 -2.9039 7.55619 5.99062 3.65169C12.2973 0.66154 13.4783 8.65271 25.1238 3.05865C41.7105 -3.3237 61.5663 5.44094 67.4534 22.2653ZM29.1258 24.186C7.13916 32.7232 23.0096 61.2459 44.0898 48.8096C61.1456 37.6834 46.2934 15.8557 29.1258 24.186Z" fill="#00478C"/>
</svg>
