<svg width="118" height="117" viewBox="0 0 118 117" fill="none" xmlns="http://www.w3.org/2000/svg">
<path d="M85.9697 93.6094C83.4284 97.5242 77.972 99.7502 74.0176 97.2474C73.0035 96.5865 71.912 96.4103 70.7624 96.5975C54.6919 100.316 42.4885 101.478 31.7613 86.5463C24.8768 76.0634 25.9398 62.7128 25.6471 50.6843C27.1225 42.6949 22.5822 27.818 31.6801 24.2908C51.5514 19.5204 44.6899 56.3942 45.6926 67.717C45.5318 76.043 55.8529 81.8359 62.7247 76.9798C73.0461 71.0899 67.6481 46.0074 69.5375 34.8036C69.3135 19.8531 83.8398 19.4148 87.2835 33.3689C89.7913 45.7053 88.5951 58.4876 88.7784 71.0452C87.9809 78.3736 90.1691 87.1038 85.9697 93.6094Z" fill="#E70000"/>
</svg>
