<svg width="63" height="105" viewBox="0 0 63 105" fill="none" xmlns="http://www.w3.org/2000/svg">
<path d="M20.356 81.4204C18.8672 86.167 20.3252 97.2036 16.0864 99.3456C12.6687 101.239 9.12307 101.534 5.4938 99.8637C-2.61607 96.8179 2.48853 78.3242 1.57733 70.9407C2.56239 57.8943 2.28412 44.8704 2.0361 31.8006C2.24939 23.9079 -0.342221 11.0039 3.36147 4.29461C6.20669 -0.0179276 10.9676 -0.959449 15.1788 1.62138C24.6354 10.4943 17.5429 34.5905 20.6188 46.7604C22.8588 51.3331 29.7263 44.0114 32.8887 43.0029C36.1543 41.1407 39.4199 39.2785 42.7468 37.5226C53.4718 31.824 61.9666 43.9474 55.4721 53.2931C51.3658 58.2223 44.6749 59.9976 39.345 63.3952C35.9715 64.9229 38.6447 67.345 40.4317 68.919C47.0482 75.5232 55.972 80.4229 61.1318 88.239C65.6057 95.8 57.4688 109.527 48.4622 102.861C40.7617 95.41 31.8488 89.398 23.8301 82.3297C22.7306 81.4068 22.7003 81.4526 20.356 81.4204Z" fill="#00478C"/>
</svg>
