<svg width="92" height="145" viewBox="0 0 92 145" fill="none" xmlns="http://www.w3.org/2000/svg">
<rect width="92" height="145" fill="white"/>
<path d="M74.3714 46.0306C71.5449 54.7518 62.979 60.1107 59.0994 68.311C56.4904 73.7907 67.4132 80.8728 70.2551 85.4213C73.8088 89.257 76.9243 94.0524 75.3273 99.5859C73.742 105.692 67.45 111.285 60.9782 108.915C55.8272 106.514 53.6677 100.333 49.8639 96.3708C45.8748 91.8446 40.1921 105.293 36.5622 107.471C28.0524 116.319 16.5296 112.828 16.4878 100.063C17.1786 90.4057 26.5152 84.1225 30.9391 76.0167C33.0657 72.6801 28.8502 70.1975 27.2762 67.653C23.5488 61.7763 17.677 56.84 16.1381 49.8644C15.1053 42.9158 19.932 32.1324 28.3483 35.101C35.1143 37.4394 38.1711 44.4959 42.5721 49.5921C44.0195 51.3613 46.1582 54.7462 48.2879 51.809C52.8678 47.4473 60.1772 33.4834 65.6105 33.2306C73.3352 31.509 76.9068 39.7904 74.3714 46.0306Z" fill="#00478C"/>
</svg>
