<svg width="92" height="145" viewBox="0 0 92 145" fill="none" xmlns="http://www.w3.org/2000/svg">
<rect width="92" height="145" fill="white"/>
<path d="M40.1362 35.7483C47.5997 33.239 54.8894 37.9149 62.2729 37.8795C63.8168 37.4682 65.3607 37.057 66.6922 36.1283C72.7615 32.4927 78.7074 38.3232 80.4725 43.959C82.558 55.2873 80.8995 67.2302 81.1834 78.7963C81.1609 84.1643 81.128 89.4784 81.0515 94.8568C81.7601 102.262 79.9101 112.063 70.2098 110.257C66.9775 110.046 64.8261 105.882 61.5052 107.811C46.0943 116.108 27.6544 108.79 17.3551 95.8148C15.5884 93.9226 14.276 91.7748 13.3099 89.3921C12.9496 88.4005 12.4918 87.4836 12.088 86.5562C10.8347 83.5588 9.96956 80.542 10.0008 77.2395C10.0721 72.7002 10.0999 68.2251 11.205 63.8204C15.1141 50.4912 25.9993 38.4905 40.1362 35.7483ZM46.1337 88.8915C62.1904 85.9445 70.0989 56.866 48.7316 55.8148C29.3399 56.0006 23.6212 91.7499 46.1337 88.8915Z" fill="#E70000"/>
</svg>
