<svg width="48" height="83" viewBox="0 0 48 83" fill="none" xmlns="http://www.w3.org/2000/svg">
<path d="M43.9265 21.6901C40.9033 23.8771 36.6512 23.3772 33.1589 24.2882C19.87 27.4698 21.3183 44.826 21.6968 55.5331C21.8378 60.6204 22.1458 65.6607 22.2415 70.7788C23.0486 81.7262 7.4721 87.5918 2.48823 77.6216C-1.13169 68.5853 1.12787 58.3451 0.365148 48.8294C0.406493 39.0331 0.357094 29.2985 0.0789339 19.52C-0.242608 13.0934 0.300694 4.81671 7.74098 2.88454C13.2748 0.58643 16.7837 6.04343 22.1448 3.19823C27.7839 0.762187 33.5871 -0.456383 39.7475 0.60748C47.3635 1.08102 48.4611 9.04021 47.577 15.1563C47.4535 18.0975 46.5616 20.2983 43.9265 21.6901Z" fill="#00478C"/>
</svg>
