<svg width="63" height="103" viewBox="0 0 63 103" fill="none" xmlns="http://www.w3.org/2000/svg">
<path d="M57.7134 95.4248C52.4246 104.332 40.4085 103.63 32.2298 99.8226C27.6386 97.348 24.7552 92.7249 21.1595 89.0756C19.1044 86.4854 19.046 82.8411 18.2153 79.7872C17.4639 75.2283 17.0637 70.6547 17.322 66.0188C17.1376 62.8261 17.8754 58.7448 13.4832 58.0467C10.3428 57.3128 6.68666 58.3082 3.97689 56.0545C-0.960512 50.6086 -1.82649 39.7822 5.19461 35.6756C8.35203 33.5 15.4757 35.5844 16.6056 31.2463C18.2803 22.3462 13.3268 9.75331 20.1587 2.92618C30.5077 -6.28914 39.3556 10.1033 37.2923 19.5348C37.3465 30.447 34.0979 34.0508 47.4283 33.6075C53.106 33.4791 59.8348 39.8275 57.8737 46.1399C56.5482 51.4901 53.4829 56.5192 47.2847 56.3349C38.5181 56.3108 35.4089 56.2791 36.4824 66.1701C36.5314 68.2445 36.6571 70.3071 36.706 72.3815C36.8185 75.114 39.6694 82.2955 43.033 79.931C45.0273 77.856 46.078 75.0229 48.1046 72.9037C50.2945 69.8165 54.1411 70.7951 57.2287 71.6943C66.1677 74.8345 61.7525 90.0886 57.7134 95.4248Z" fill="#00478C"/>
</svg>
