<svg width="72" height="78" viewBox="0 0 72 78" fill="none" xmlns="http://www.w3.org/2000/svg">
<path d="M30.1933 1.74123C37.6569 -0.768069 44.9465 3.90784 52.33 3.87238C53.8739 3.46117 55.4178 3.04995 56.7493 2.12121C62.8186 -1.51441 68.7646 4.31608 70.5296 9.95189C72.6151 21.2803 70.9566 33.2231 71.2406 44.7892C71.218 50.1572 71.1851 55.4713 71.1087 60.8498C71.8173 68.2549 69.9672 78.0559 60.2669 76.2501C57.0347 76.039 54.8833 71.8749 51.5623 73.8041C36.1514 82.1012 17.7115 74.7833 7.41227 61.8077C5.64554 59.9156 4.33311 57.7677 3.36704 55.385C3.00671 54.3934 2.54894 53.4765 2.14511 52.5491C0.891827 49.5517 0.0266927 46.5349 0.057949 43.2325C0.129211 38.6931 0.156991 34.218 1.26216 29.8133C5.17119 16.4841 16.0564 4.48346 30.1933 1.74123ZM36.1908 54.8844C52.2476 51.9374 60.1561 22.859 38.7887 21.8077C19.397 21.9935 13.6783 57.7428 36.1908 54.8844Z" fill="#E70000"/>
</svg>
