<svg width="58" height="81" viewBox="0 0 58 81" fill="none" xmlns="http://www.w3.org/2000/svg">
<path d="M49.5678 73.1338C41.7387 79.4343 31.588 81.4737 21.8074 80.4626C13.7454 79.3206 2.87094 75.016 2.12064 65.7535C1.0405 58.8439 5.94572 51.3189 13.5114 52.9758C33.896 64.3427 50.2077 49.1748 19.7806 46.0766C12.8367 45.7792 4.28123 43.752 1.99214 36.2258C-1.57338 25.2008 2.17221 12.8227 11.957 6.32772C18.0104 1.82707 25.6121 -0.519894 33.1725 0.553309C42.2742 1.87401 56.2644 4.06968 57.4048 15.339C58.1874 21.3363 53.2811 31.5838 46.1726 27.3872C40.7321 22.59 35.335 19.74 27.8315 20.3815C21.2625 21.001 20.3213 26.5455 27.3213 27.8964C35.4803 30.0554 44.5998 31.0661 50.8537 37.2731C61.3972 46.6529 59.3083 64.0303 49.5678 73.1338Z" fill="#00478C"/>
</svg>
