<svg width="92" height="145" viewBox="0 0 92 145" fill="none" xmlns="http://www.w3.org/2000/svg">
<rect width="92" height="145" fill="white"/>
<path d="M34.5371 93.2248C33.0483 97.9713 34.5063 109.008 30.2676 111.15C26.8498 113.044 23.3042 113.338 19.6749 111.668C11.5651 108.622 16.6697 90.1286 15.7585 82.7451C16.7435 69.6987 16.4653 56.6748 16.2173 43.605C16.4305 35.7122 13.8389 22.8083 17.5426 16.099C20.3878 11.7865 25.1488 10.8449 29.36 13.4258C38.8165 22.2987 31.7241 46.3949 34.8 58.5648C37.0399 63.1375 43.9075 55.8158 47.0698 54.8073C50.3354 52.9451 53.6011 51.0829 56.928 49.327C67.6529 43.6284 76.1477 55.7518 69.6533 65.0975C65.547 70.0267 58.8561 71.802 53.5261 75.1996C50.1527 76.7272 52.8258 79.1493 54.6128 80.7234C61.2294 87.3275 70.1531 92.2273 75.313 100.043C79.7868 107.604 71.65 121.332 62.6433 114.665C54.9428 107.214 46.03 101.202 38.0113 94.1341C36.9117 93.2111 36.8815 93.257 34.5371 93.2248Z" fill="#00478C"/>
</svg>
