<svg width="81" height="108" viewBox="0 0 81 108" fill="none" xmlns="http://www.w3.org/2000/svg">
<path d="M69.6793 84.0863C72.9926 82.6948 78.4709 74.4693 80.4075 81.508C82.4724 91.6829 75.7328 101.737 66.7106 106.072C45.4325 114.531 53.0562 85.437 50.443 74.1021C45.6826 72.0087 40.1664 74.7492 35.0757 74.5687C29.1962 75.078 23.7102 73.7643 18.5333 70.8887C5.61357 63.1123 -0.967646 46.236 1.49246 31.5314C6.27884 8.60206 27.8983 -3.65967 50.0447 4.07428C54.0325 5.16554 56.0202 0.271046 59.7893 0.575227C67.5547 0.553256 69.217 7.58348 68.8985 13.9916C69.1923 19.3637 69.2566 24.6957 69.3974 30.0411C69.3676 41.6233 69.1083 53.1654 68.849 64.7075C69.1556 71.1461 67.7371 77.9924 69.6793 84.0863ZM43.7477 50.5845C61.2946 38.6355 44.816 15.4177 27.3463 25.0942C20.9859 28.1601 18.5964 36.295 19.7629 43.0021C22.78 52.9099 35.6455 56.8931 43.7477 50.5845Z" fill="#00478C"/>
</svg>
