<svg width="92" height="145" viewBox="0 0 92 145" fill="none" xmlns="http://www.w3.org/2000/svg">
<rect width="92" height="145" fill="white"/>
<path d="M72.028 16.2433C76.4438 22.5057 74.9093 35.336 65.1263 33.9901C62.0229 33.4106 59.5355 31.3502 56.6534 30.268C49.201 26.789 44.2431 40.0388 48.7709 40.5705C60.1094 39.5277 64.9675 43.7774 63.0047 55.4009C61.383 66.9579 47.5816 56.9215 48.7752 66.1978C48.7477 74.6516 48.6723 83.1323 48.7196 91.6069C48.8116 99.4895 49.612 114.781 37.1739 110.966C26.0224 106.298 32.5466 86.8754 31.3558 77.1567C30.4419 73.0752 33.5898 61.539 28.212 60.731C23.0468 60.7477 17.1396 60.6792 17.1195 53.2598C15.5761 34.8609 29.4641 44.1558 31.0993 37.8808C30.9204 29.7324 30.894 21.183 36.0213 14.3867C45.2261 2.9605 64.6057 2.86062 72.028 16.2433Z" fill="#00478C"/>
</svg>
