<svg width="92" height="145" viewBox="0 0 92 145" fill="none" xmlns="http://www.w3.org/2000/svg">
<rect width="92" height="145" fill="white"/>
<path d="M61.1469 109.29C45.2631 118.156 24.1528 112.215 15.3254 96.2731C11.4695 88.899 10.8406 80.0055 11.0298 71.8954C13.2477 41.9968 48.2241 27.6656 71.2513 46.4352C80.7866 52.8438 81.3449 66.2612 81.3982 76.7224C80.9174 89.8117 73.9018 104.237 61.1469 109.29ZM39.3905 58.5764C39.4124 58.6268 39.4124 58.6268 39.4342 58.6772C31.6326 61.6416 28.2403 71.74 28.4603 79.5527C28.6229 90.2661 40.595 98.4335 50.6042 94.6316C58.2833 91.6604 65.8274 84.7938 65.0979 75.9439C64.0312 68.7979 60.615 61.4728 53.3763 58.9808C48.8831 56.616 43.9084 55.898 39.3905 58.5764Z" fill="#E70000"/>
</svg>
