<svg width="59" height="107" viewBox="0 0 59 107" fill="none" xmlns="http://www.w3.org/2000/svg">
<path d="M55.8168 11.1905C60.2326 17.4529 58.6981 30.2831 48.9151 28.9373C45.8117 28.3578 43.3243 26.2973 40.4422 25.2152C32.9898 21.7361 28.0319 34.986 32.5598 35.5177C43.8982 34.4749 48.7563 38.7246 46.7935 50.348C45.1718 61.905 31.3704 51.8686 32.564 61.1449C32.5365 69.5987 32.4611 78.0795 32.5084 86.5541C32.6004 94.4367 33.4008 109.728 20.9627 105.913C9.8112 101.246 16.3354 81.8226 15.1446 72.1039C14.2307 68.0224 17.3786 56.4861 12.0008 55.6782C6.83567 55.6949 0.92837 55.6264 0.908309 48.207C-0.635077 29.8081 13.2529 39.1029 14.8881 32.828C14.7092 24.6795 14.6828 16.1302 19.8101 9.33389C29.0149 -2.09232 48.3946 -2.1922 55.8168 11.1905Z" fill="#00478C"/>
</svg>
