<svg width="92" height="145" viewBox="0 0 92 145" fill="none" xmlns="http://www.w3.org/2000/svg">
<rect width="92" height="145" fill="white"/>
<path d="M77.9237 59.2954C82.9965 68.4557 79.2143 94.0505 69.3315 98.5861C54.4561 107.777 50.2076 108.821 33.2245 104.887C25.2778 105.692 36.5015 143.584 23.4505 144.768C19.9865 144.967 15.4426 145.419 13.8027 141.458C9.74879 131.003 12.4904 119.375 11.8496 108.446C11.8201 96.6816 11.6175 84.9269 11.5371 73.1825C12.4344 64.4803 7.56637 44.5862 16.4609 40.6817C22.7676 37.6916 23.9486 45.6827 35.5941 40.0887C52.1808 33.7063 72.0365 42.471 77.9237 59.2954ZM39.596 61.2161C17.6094 69.7533 33.4798 98.276 54.56 85.8396C71.6159 74.7134 56.7637 52.8857 39.596 61.2161Z" fill="#00478C"/>
</svg>
