<svg width="92" height="145" viewBox="0 0 92 145" fill="none" xmlns="http://www.w3.org/2000/svg">
<rect width="92" height="145" fill="white"/>
<path d="M31.6161 15.6769C34.2137 23.6634 31.5179 32.1186 32.8012 40.3051C33.1001 43.1844 33.2804 43.4184 36.1218 42.5592C50.4416 38.4593 69.2707 43.8578 74.2952 59.0241C83.9924 76.1767 78.0291 100.771 60.2847 110.341C50.2689 116.132 42.3537 113.181 32.2712 110.442C28.7003 110.538 26.2525 115.219 22.1533 113.241C13.7605 110.824 13.9694 101.247 14.1315 94.134C14.0964 79.0409 14.8996 63.882 14.4116 48.8027C14.1043 42.0504 14.0764 35.2761 13.9956 28.5168C14.0355 21.7804 10.041 13.9033 17.7793 9.55278C23.4167 5.85244 30.4476 9.1107 31.6161 15.6769ZM33.7839 85.052C41.7616 101.778 66.9663 87.4809 58.3135 69.5775C49.2682 53.7226 27.5815 67.9385 33.7839 85.052Z" fill="#00478C"/>
</svg>
