<svg width="71" height="76" viewBox="0 0 71 76" fill="none" xmlns="http://www.w3.org/2000/svg">
<path d="M50.6 71.8186C34.7163 80.6847 13.6059 74.7433 4.77853 58.8015C0.92261 51.4274 0.293729 42.5339 0.482938 34.4238C2.70081 4.52522 37.6772 -9.80595 60.7045 8.96364C70.2397 15.3722 70.798 28.7897 70.8513 39.2508C70.3705 52.3401 63.3549 66.7659 50.6 71.8186ZM28.8436 21.1048C28.8655 21.1552 28.8655 21.1552 28.8874 21.2057C21.0857 24.17 17.6935 34.2684 17.9134 42.0812C18.076 52.7945 30.0482 60.9619 40.0573 57.16C47.7365 54.1888 55.2805 47.3222 54.551 38.4723C53.4844 31.3263 50.0681 24.0012 42.8294 21.5092C38.3362 19.1444 33.3615 18.4264 28.8436 21.1048Z" fill="#E70000"/>
</svg>
