<svg width="67" height="105" viewBox="0 0 67 105" fill="none" xmlns="http://www.w3.org/2000/svg">
<path d="M10.1922 8.61259C18.1083 2.13782 29.0691 -1.82088 39.0969 1.54892C43.1614 2.38688 47.4852 6.55216 51.5042 3.80573C56.0281 0.550748 62.7472 2.8646 64.7503 7.87463C67.4213 17.526 66.455 27.9272 66.9229 37.8868C66.6807 49.5468 66.9033 61.2404 65.7317 72.8334C64.0397 83.5716 59.7442 96.3407 49.0774 101.06C39.786 105.606 28.1587 105.43 19.3875 99.8152C17.6508 98.5611 15.7893 97.4149 14.0583 96.0834C7.10572 91.1447 5.82902 79.492 12.8572 75.0162C21.9549 71.5071 27.5356 84.4433 36.7436 82.0709C42.1206 81.4854 47.4504 78.9113 49.4073 73.525C49.8205 72.1535 50.7245 67.3141 48.7109 67.169C41.9054 68.1186 35.1642 70.8245 28.2125 70.5958C10.9849 67.719 -0.309265 49.9335 0.705051 33.1132C0.710289 24.1219 2.62024 14.6451 10.1922 8.61259ZM22.6074 44.3455C30.4545 54.0197 43.8275 52.1811 48.9962 40.7594C54.132 28.2066 40.4904 21.073 30.1855 20.914C19.3426 22.2343 14.1047 36.6871 22.6074 44.3455Z" fill="#00478C"/>
</svg>
